<mxfile host="app.diagrams.net" modified="2023-04-08T14:31:05.858Z" agent="Mozilla/5.0 (Windows NT 10.0; Win64; x64) AppleWebKit/537.36 (KHTML, like Gecko) Chrome/111.0.0.0 Safari/537.36" version="21.1.5" etag="OV93lsowcWDNiPowCR0w" type="github">
  <diagram name="Page-1" id="Mj25eBMRVsyRUsFsZYLs">
    <mxGraphModel>
      <root>
        <mxCell id="0" />
        <mxCell id="1" parent="0" />
      </root>
    </mxGraphModel>
  </diagram>
</mxfile>
